<mxfile host="app.diagrams.net" modified="2023-11-21T18:53:47.990Z" agent="Mozilla/5.0 (Windows NT 10.0; Win64; x64) AppleWebKit/537.36 (KHTML, like Gecko) Chrome/88.0.4324.182 Safari/537.36" etag="AXL3o5AonBEHd-bi2hdB" version="22.1.3" type="github">
  <diagram name="Page-1" id="74e2e168-ea6b-b213-b513-2b3c1d86103e">
    <mxGraphModel dx="1434" dy="764" grid="0" gridSize="10" guides="1" tooltips="1" connect="1" arrows="1" fold="1" page="1" pageScale="1" pageWidth="1100" pageHeight="850" background="none" math="0" shadow="1">
      <root>
        <mxCell id="0" />
        <mxCell id="1" parent="0" />
        <mxCell id="77e6c97f196da883-1" value="Dahua Brazil PoC sample application process V1.0" style="swimlane;html=1;childLayout=stackLayout;startSize=20;rounded=0;shadow=0;labelBackgroundColor=none;strokeWidth=1;fontFamily=Verdana;fontSize=8;align=center;" parent="1" vertex="1">
          <mxGeometry x="70" y="160" width="1160" height="1000" as="geometry" />
        </mxCell>
        <mxCell id="77e6c97f196da883-2" value="Sales/Pre-sales" style="swimlane;html=1;startSize=20;labelBackgroundColor=none;" parent="77e6c97f196da883-1" vertex="1">
          <mxGeometry y="20" width="160" height="980" as="geometry" />
        </mxCell>
        <mxCell id="77e6c97f196da883-8" value="Confirm sample models through out project requirements. Send application to product team" style="rounded=1;whiteSpace=wrap;html=1;shadow=0;labelBackgroundColor=none;strokeWidth=1;fontFamily=Verdana;fontSize=8;align=center;" parent="77e6c97f196da883-2" vertex="1">
          <mxGeometry x="30" y="50" width="100" height="60" as="geometry" />
        </mxCell>
        <mxCell id="YvzoMQolWy9YzdtqB8I--18" value="" style="edgeStyle=orthogonalEdgeStyle;rounded=0;orthogonalLoop=1;jettySize=auto;html=1;fontFamily=Verdana;fontSize=8;fontColor=default;startSize=20;" edge="1" parent="77e6c97f196da883-2" source="77e6c97f196da883-9" target="77e6c97f196da883-8">
          <mxGeometry relative="1" as="geometry" />
        </mxCell>
        <mxCell id="77e6c97f196da883-9" value="Review the application and modify the sample application according to suggestion of product team" style="rounded=1;whiteSpace=wrap;html=1;shadow=0;labelBackgroundColor=none;strokeWidth=1;fontFamily=Verdana;fontSize=8;align=center;" parent="77e6c97f196da883-2" vertex="1">
          <mxGeometry x="30" y="140" width="100" height="60" as="geometry" />
        </mxCell>
        <mxCell id="YvzoMQolWy9YzdtqB8I--86" value="" style="edgeStyle=orthogonalEdgeStyle;rounded=0;orthogonalLoop=1;jettySize=auto;html=1;fontFamily=Verdana;fontSize=8;fontColor=default;startSize=20;" edge="1" parent="77e6c97f196da883-2" source="YvzoMQolWy9YzdtqB8I--81" target="YvzoMQolWy9YzdtqB8I--85">
          <mxGeometry relative="1" as="geometry" />
        </mxCell>
        <mxCell id="YvzoMQolWy9YzdtqB8I--81" value="Bringing samples to customer and start PoC" style="rounded=1;whiteSpace=wrap;html=1;shadow=0;labelBackgroundColor=none;strokeWidth=1;fontFamily=Verdana;fontSize=8;align=center;" vertex="1" parent="77e6c97f196da883-2">
          <mxGeometry x="30" y="660" width="100" height="60" as="geometry" />
        </mxCell>
        <mxCell id="YvzoMQolWy9YzdtqB8I--133" value="" style="edgeStyle=orthogonalEdgeStyle;rounded=0;orthogonalLoop=1;jettySize=auto;html=1;fontFamily=Verdana;fontSize=8;fontColor=default;startSize=20;" edge="1" parent="77e6c97f196da883-2" source="YvzoMQolWy9YzdtqB8I--85" target="YvzoMQolWy9YzdtqB8I--132">
          <mxGeometry relative="1" as="geometry" />
        </mxCell>
        <mxCell id="YvzoMQolWy9YzdtqB8I--135" value="Sold" style="edgeLabel;html=1;align=center;verticalAlign=middle;resizable=0;points=[];fontSize=8;fontFamily=Verdana;fontColor=default;" vertex="1" connectable="0" parent="YvzoMQolWy9YzdtqB8I--133">
          <mxGeometry x="0.32" y="2" relative="1" as="geometry">
            <mxPoint as="offset" />
          </mxGeometry>
        </mxCell>
        <mxCell id="YvzoMQolWy9YzdtqB8I--85" value="Sample status" style="rhombus;whiteSpace=wrap;html=1;rounded=0;shadow=0;labelBackgroundColor=none;strokeWidth=1;fontFamily=Verdana;fontSize=8;align=center;" vertex="1" parent="77e6c97f196da883-2">
          <mxGeometry x="40" y="750" width="80" height="60" as="geometry" />
        </mxCell>
        <mxCell id="YvzoMQolWy9YzdtqB8I--132" value="Sell to the customer" style="rounded=1;whiteSpace=wrap;html=1;shadow=0;labelBackgroundColor=none;strokeWidth=1;fontFamily=Verdana;fontSize=8;align=center;" vertex="1" parent="77e6c97f196da883-2">
          <mxGeometry x="30" y="840" width="100" height="60" as="geometry" />
        </mxCell>
        <mxCell id="77e6c97f196da883-26" style="edgeStyle=orthogonalEdgeStyle;rounded=1;html=1;labelBackgroundColor=none;startArrow=none;startFill=0;startSize=5;endArrow=classicThin;endFill=1;endSize=5;jettySize=auto;orthogonalLoop=1;strokeWidth=1;fontFamily=Verdana;fontSize=8;fontColor=default;" parent="77e6c97f196da883-1" source="77e6c97f196da883-8" target="77e6c97f196da883-11" edge="1">
          <mxGeometry relative="1" as="geometry" />
        </mxCell>
        <mxCell id="77e6c97f196da883-3" value="Product team" style="swimlane;html=1;startSize=20;labelBackgroundColor=none;" parent="77e6c97f196da883-1" vertex="1">
          <mxGeometry x="160" y="20" width="160" height="980" as="geometry" />
        </mxCell>
        <mxCell id="YvzoMQolWy9YzdtqB8I--2" value="" style="edgeStyle=orthogonalEdgeStyle;rounded=0;orthogonalLoop=1;jettySize=auto;html=1;fontFamily=Verdana;fontSize=8;fontColor=default;startSize=20;" edge="1" parent="77e6c97f196da883-3" source="77e6c97f196da883-11" target="77e6c97f196da883-13">
          <mxGeometry relative="1" as="geometry" />
        </mxCell>
        <mxCell id="77e6c97f196da883-11" value="Review the sample application, check reasonability, correspondingly check Dahua Brazil stock to use stock or replace with similar stock" style="rounded=1;whiteSpace=wrap;html=1;shadow=0;labelBackgroundColor=none;strokeWidth=1;fontFamily=Verdana;fontSize=8;align=center;" parent="77e6c97f196da883-3" vertex="1">
          <mxGeometry x="30" y="50" width="100" height="60" as="geometry" />
        </mxCell>
        <mxCell id="77e6c97f196da883-13" value="Models requiring China to produce or ship, and confirmed with reason, send application to Chinese engineer" style="rhombus;whiteSpace=wrap;html=1;rounded=0;shadow=0;labelBackgroundColor=none;strokeWidth=1;fontFamily=Verdana;fontSize=8;align=center;" parent="77e6c97f196da883-3" vertex="1">
          <mxGeometry x="40" y="140" width="80" height="60" as="geometry" />
        </mxCell>
        <mxCell id="YvzoMQolWy9YzdtqB8I--36" value="Review delaying reason, optimize product or sample application process" style="rounded=1;whiteSpace=wrap;html=1;shadow=0;labelBackgroundColor=none;strokeWidth=1;fontFamily=Verdana;fontSize=8;align=center;" vertex="1" parent="77e6c97f196da883-3">
          <mxGeometry x="30" y="580" width="100" height="60" as="geometry" />
        </mxCell>
        <mxCell id="77e6c97f196da883-4" value="Chinese engineer" style="swimlane;html=1;startSize=20;labelBackgroundColor=none;" parent="77e6c97f196da883-1" vertex="1">
          <mxGeometry x="320" y="20" width="160" height="980" as="geometry" />
        </mxCell>
        <mxCell id="YvzoMQolWy9YzdtqB8I--10" value="" style="edgeStyle=orthogonalEdgeStyle;rounded=0;orthogonalLoop=1;jettySize=auto;html=1;fontFamily=Verdana;fontSize=8;fontColor=default;startSize=20;" edge="1" parent="77e6c97f196da883-4" source="77e6c97f196da883-12" target="YvzoMQolWy9YzdtqB8I--6">
          <mxGeometry relative="1" as="geometry" />
        </mxCell>
        <mxCell id="77e6c97f196da883-12" value="Review the application and email history, check product parameter to confirm size and weight, if air shipment cost is more than product value over 15%, application should be informing director to reivew" style="rounded=1;whiteSpace=wrap;html=1;shadow=0;labelBackgroundColor=none;strokeWidth=1;fontFamily=Verdana;fontSize=8;align=center;" parent="77e6c97f196da883-4" vertex="1">
          <mxGeometry x="30" y="140" width="100" height="60" as="geometry" />
        </mxCell>
        <mxCell id="YvzoMQolWy9YzdtqB8I--6" value="Check sample release from system, release the product and price into system" style="rounded=1;whiteSpace=wrap;html=1;shadow=0;labelBackgroundColor=none;strokeWidth=1;fontFamily=Verdana;fontSize=8;align=center;" vertex="1" parent="77e6c97f196da883-4">
          <mxGeometry x="30" y="230" width="100" height="60" as="geometry" />
        </mxCell>
        <mxCell id="77e6c97f196da883-5" value="Product&amp;amp;Solution director" style="swimlane;html=1;startSize=20;labelBackgroundColor=none;" parent="77e6c97f196da883-1" vertex="1">
          <mxGeometry x="480" y="20" width="160" height="980" as="geometry" />
        </mxCell>
        <mxCell id="77e6c97f196da883-15" value="Final review and decide to approve" style="rounded=1;whiteSpace=wrap;html=1;shadow=0;labelBackgroundColor=none;strokeWidth=1;fontFamily=Verdana;fontSize=8;align=center;" parent="77e6c97f196da883-5" vertex="1">
          <mxGeometry x="30" y="230" width="100" height="60" as="geometry" />
        </mxCell>
        <mxCell id="77e6c97f196da883-16" value="" style="rhombus;whiteSpace=wrap;html=1;rounded=0;shadow=0;labelBackgroundColor=none;strokeWidth=1;fontFamily=Verdana;fontSize=8;align=center;" parent="77e6c97f196da883-5" vertex="1">
          <mxGeometry x="40" y="320" width="80" height="60" as="geometry" />
        </mxCell>
        <mxCell id="77e6c97f196da883-34" style="edgeStyle=orthogonalEdgeStyle;rounded=1;html=1;labelBackgroundColor=none;startArrow=none;startFill=0;startSize=5;endArrow=classicThin;endFill=1;endSize=5;jettySize=auto;orthogonalLoop=1;strokeWidth=1;fontFamily=Verdana;fontSize=8;fontColor=default;" parent="77e6c97f196da883-5" source="77e6c97f196da883-15" target="77e6c97f196da883-16" edge="1">
          <mxGeometry relative="1" as="geometry" />
        </mxCell>
        <mxCell id="YvzoMQolWy9YzdtqB8I--140" value="Missing from PoC, report to Sales and Product &amp;amp; Solution director to inform and using picture to balance off record in system" style="rounded=1;whiteSpace=wrap;html=1;shadow=0;labelBackgroundColor=none;strokeWidth=1;fontFamily=Verdana;fontSize=8;align=center;" vertex="1" parent="77e6c97f196da883-5">
          <mxGeometry x="30" y="840" width="100" height="60" as="geometry" />
        </mxCell>
        <mxCell id="77e6c97f196da883-6" value="Operation&amp;amp;Management" style="swimlane;html=1;startSize=20;labelBackgroundColor=none;" parent="77e6c97f196da883-1" vertex="1">
          <mxGeometry x="640" y="20" width="160" height="980" as="geometry" />
        </mxCell>
        <mxCell id="YvzoMQolWy9YzdtqB8I--15" value="To place the order into system" style="rounded=1;whiteSpace=wrap;html=1;shadow=0;labelBackgroundColor=none;strokeWidth=1;fontFamily=Verdana;fontSize=8;align=center;" vertex="1" parent="77e6c97f196da883-6">
          <mxGeometry x="30" y="320" width="100" height="60" as="geometry" />
        </mxCell>
        <mxCell id="77e6c97f196da883-7" value="Head Quarter" style="swimlane;html=1;startSize=20;labelBackgroundColor=none;" parent="77e6c97f196da883-1" vertex="1">
          <mxGeometry x="800" y="20" width="180" height="980" as="geometry" />
        </mxCell>
        <mxCell id="YvzoMQolWy9YzdtqB8I--27" value="" style="edgeStyle=orthogonalEdgeStyle;rounded=0;orthogonalLoop=1;jettySize=auto;html=1;fontFamily=Verdana;fontSize=8;fontColor=default;startSize=20;" edge="1" parent="77e6c97f196da883-7" source="77e6c97f196da883-24" target="YvzoMQolWy9YzdtqB8I--23">
          <mxGeometry relative="1" as="geometry" />
        </mxCell>
        <mxCell id="77e6c97f196da883-24" value="Supply and Chain team confirm the production plan and send prediction to commericial team" style="rounded=1;whiteSpace=wrap;html=1;shadow=0;labelBackgroundColor=none;strokeWidth=1;fontFamily=Verdana;fontSize=8;align=center;" parent="77e6c97f196da883-7" vertex="1">
          <mxGeometry x="40" y="410" width="100" height="60" as="geometry" />
        </mxCell>
        <mxCell id="YvzoMQolWy9YzdtqB8I--26" value="" style="edgeStyle=orthogonalEdgeStyle;rounded=0;orthogonalLoop=1;jettySize=auto;html=1;fontFamily=Verdana;fontSize=8;fontColor=default;startSize=20;" edge="1" parent="77e6c97f196da883-7" source="77e6c97f196da883-18" target="77e6c97f196da883-24">
          <mxGeometry relative="1" as="geometry" />
        </mxCell>
        <mxCell id="77e6c97f196da883-18" value="Commercial team confirms the order, and send production order to supply and chain team" style="rounded=1;whiteSpace=wrap;html=1;shadow=0;labelBackgroundColor=none;strokeWidth=1;fontFamily=Verdana;fontSize=8;align=center;" parent="77e6c97f196da883-7" vertex="1">
          <mxGeometry x="40" y="320" width="100" height="60" as="geometry" />
        </mxCell>
        <mxCell id="YvzoMQolWy9YzdtqB8I--23" value="Production is done, commercial team ship the goods by air/ship, and send tracking number to Dahua Brazil delivery&amp;amp;logistic team&amp;nbsp;" style="rounded=1;whiteSpace=wrap;html=1;shadow=0;labelBackgroundColor=none;strokeWidth=1;fontFamily=Verdana;fontSize=8;align=center;" vertex="1" parent="77e6c97f196da883-7">
          <mxGeometry x="40" y="500" width="100" height="60" as="geometry" />
        </mxCell>
        <mxCell id="YvzoMQolWy9YzdtqB8I--3" value="Not okay" style="edgeStyle=orthogonalEdgeStyle;rounded=0;orthogonalLoop=1;jettySize=auto;html=1;fontFamily=Verdana;fontSize=8;fontColor=default;startSize=20;" edge="1" parent="77e6c97f196da883-1" source="77e6c97f196da883-13" target="77e6c97f196da883-9">
          <mxGeometry relative="1" as="geometry" />
        </mxCell>
        <mxCell id="YvzoMQolWy9YzdtqB8I--4" value="Reason ok" style="edgeStyle=orthogonalEdgeStyle;rounded=0;orthogonalLoop=1;jettySize=auto;html=1;fontFamily=Verdana;fontSize=8;fontColor=default;startSize=20;" edge="1" parent="77e6c97f196da883-1" source="77e6c97f196da883-13" target="77e6c97f196da883-12">
          <mxGeometry relative="1" as="geometry" />
        </mxCell>
        <mxCell id="YvzoMQolWy9YzdtqB8I--13" value="" style="edgeStyle=orthogonalEdgeStyle;rounded=0;orthogonalLoop=1;jettySize=auto;html=1;fontFamily=Verdana;fontSize=8;fontColor=default;startSize=20;" edge="1" parent="77e6c97f196da883-1" source="YvzoMQolWy9YzdtqB8I--6" target="77e6c97f196da883-15">
          <mxGeometry relative="1" as="geometry" />
        </mxCell>
        <mxCell id="YvzoMQolWy9YzdtqB8I--17" value="" style="edgeStyle=orthogonalEdgeStyle;rounded=0;orthogonalLoop=1;jettySize=auto;html=1;fontFamily=Verdana;fontSize=8;fontColor=default;startSize=20;entryX=0.5;entryY=1;entryDx=0;entryDy=0;" edge="1" parent="77e6c97f196da883-1" source="77e6c97f196da883-16" target="77e6c97f196da883-9">
          <mxGeometry relative="1" as="geometry">
            <mxPoint x="440" y="370" as="targetPoint" />
          </mxGeometry>
        </mxCell>
        <mxCell id="YvzoMQolWy9YzdtqB8I--19" value="Not okay" style="edgeLabel;html=1;align=center;verticalAlign=middle;resizable=0;points=[];fontSize=8;fontFamily=Verdana;fontColor=default;" vertex="1" connectable="0" parent="YvzoMQolWy9YzdtqB8I--17">
          <mxGeometry x="-0.1315" y="-2" relative="1" as="geometry">
            <mxPoint as="offset" />
          </mxGeometry>
        </mxCell>
        <mxCell id="YvzoMQolWy9YzdtqB8I--20" value="" style="edgeStyle=orthogonalEdgeStyle;rounded=0;orthogonalLoop=1;jettySize=auto;html=1;fontFamily=Verdana;fontSize=8;fontColor=default;startSize=20;" edge="1" parent="77e6c97f196da883-1" source="77e6c97f196da883-16" target="YvzoMQolWy9YzdtqB8I--15">
          <mxGeometry relative="1" as="geometry" />
        </mxCell>
        <mxCell id="YvzoMQolWy9YzdtqB8I--21" value="Okay" style="edgeLabel;html=1;align=center;verticalAlign=middle;resizable=0;points=[];fontSize=8;fontFamily=Verdana;fontColor=default;" vertex="1" connectable="0" parent="YvzoMQolWy9YzdtqB8I--20">
          <mxGeometry x="-0.2057" y="3" relative="1" as="geometry">
            <mxPoint as="offset" />
          </mxGeometry>
        </mxCell>
        <mxCell id="YvzoMQolWy9YzdtqB8I--22" value="Delivery&amp;amp;Logistic" style="swimlane;html=1;startSize=20;labelBackgroundColor=none;" vertex="1" parent="77e6c97f196da883-1">
          <mxGeometry x="980" y="20" width="180" height="980" as="geometry" />
        </mxCell>
        <mxCell id="YvzoMQolWy9YzdtqB8I--31" value="" style="edgeStyle=orthogonalEdgeStyle;rounded=0;orthogonalLoop=1;jettySize=auto;html=1;fontFamily=Verdana;fontSize=8;fontColor=default;startSize=20;" edge="1" parent="YvzoMQolWy9YzdtqB8I--22" source="YvzoMQolWy9YzdtqB8I--24" target="YvzoMQolWy9YzdtqB8I--30">
          <mxGeometry relative="1" as="geometry" />
        </mxCell>
        <mxCell id="YvzoMQolWy9YzdtqB8I--24" value="Given tracking number from Commercial team, correspondingly contact with Brazilian custom, to check and receive the samples to warehouse" style="rounded=1;whiteSpace=wrap;html=1;shadow=0;labelBackgroundColor=none;strokeWidth=1;fontFamily=Verdana;fontSize=8;align=center;" vertex="1" parent="YvzoMQolWy9YzdtqB8I--22">
          <mxGeometry x="40" y="50" width="100" height="60" as="geometry" />
        </mxCell>
        <mxCell id="YvzoMQolWy9YzdtqB8I--30" value="If samples staying custom for more than 1 business week report to product team and contact with custom to investigate reason delaying, to utilize sample applciation process or product attribute" style="rhombus;whiteSpace=wrap;html=1;rounded=0;shadow=0;labelBackgroundColor=none;strokeWidth=1;fontFamily=Verdana;fontSize=8;align=center;" vertex="1" parent="YvzoMQolWy9YzdtqB8I--22">
          <mxGeometry x="50" y="140" width="80" height="60" as="geometry" />
        </mxCell>
        <mxCell id="YvzoMQolWy9YzdtqB8I--142" value="Return to warehouse and take a picture, announce to HQ to write off this sample record" style="rounded=1;whiteSpace=wrap;html=1;shadow=0;labelBackgroundColor=none;strokeWidth=1;fontFamily=Verdana;fontSize=8;align=center;" vertex="1" parent="YvzoMQolWy9YzdtqB8I--22">
          <mxGeometry x="40" y="840" width="100" height="60" as="geometry" />
        </mxCell>
        <mxCell id="YvzoMQolWy9YzdtqB8I--25" value="" style="edgeStyle=orthogonalEdgeStyle;rounded=0;orthogonalLoop=1;jettySize=auto;html=1;fontFamily=Verdana;fontSize=8;fontColor=default;startSize=20;" edge="1" parent="77e6c97f196da883-1" source="YvzoMQolWy9YzdtqB8I--15" target="77e6c97f196da883-18">
          <mxGeometry relative="1" as="geometry" />
        </mxCell>
        <mxCell id="YvzoMQolWy9YzdtqB8I--29" value="" style="edgeStyle=orthogonalEdgeStyle;rounded=0;orthogonalLoop=1;jettySize=auto;html=1;fontFamily=Verdana;fontSize=8;fontColor=default;startSize=20;entryX=0;entryY=0.5;entryDx=0;entryDy=0;" edge="1" parent="77e6c97f196da883-1" source="YvzoMQolWy9YzdtqB8I--23" target="YvzoMQolWy9YzdtqB8I--24">
          <mxGeometry relative="1" as="geometry">
            <mxPoint x="990" y="100" as="targetPoint" />
            <Array as="points">
              <mxPoint x="990" y="550" />
              <mxPoint x="990" y="100" />
            </Array>
          </mxGeometry>
        </mxCell>
        <mxCell id="YvzoMQolWy9YzdtqB8I--35" value="" style="edgeStyle=orthogonalEdgeStyle;rounded=0;orthogonalLoop=1;jettySize=auto;html=1;fontFamily=Verdana;fontSize=8;fontColor=default;startSize=20;entryX=1;entryY=0.5;entryDx=0;entryDy=0;" edge="1" parent="77e6c97f196da883-1" source="YvzoMQolWy9YzdtqB8I--30" target="YvzoMQolWy9YzdtqB8I--36">
          <mxGeometry relative="1" as="geometry">
            <mxPoint x="1070" y="628" as="targetPoint" />
          </mxGeometry>
        </mxCell>
        <mxCell id="YvzoMQolWy9YzdtqB8I--38" value="" style="edgeStyle=orthogonalEdgeStyle;rounded=0;orthogonalLoop=1;jettySize=auto;html=1;fontFamily=Verdana;fontSize=8;fontColor=default;startSize=20;entryX=1;entryY=0.5;entryDx=0;entryDy=0;" edge="1" parent="77e6c97f196da883-1" source="YvzoMQolWy9YzdtqB8I--30" target="YvzoMQolWy9YzdtqB8I--81">
          <mxGeometry relative="1" as="geometry">
            <mxPoint x="1070" y="300" as="targetPoint" />
            <Array as="points">
              <mxPoint x="1070" y="710" />
            </Array>
          </mxGeometry>
        </mxCell>
        <mxCell id="YvzoMQolWy9YzdtqB8I--137" value="" style="edgeStyle=orthogonalEdgeStyle;rounded=0;orthogonalLoop=1;jettySize=auto;html=1;fontFamily=Verdana;fontSize=8;fontColor=default;startSize=20;entryX=0.01;entryY=0.617;entryDx=0;entryDy=0;entryPerimeter=0;" edge="1" parent="77e6c97f196da883-1" source="YvzoMQolWy9YzdtqB8I--85" target="YvzoMQolWy9YzdtqB8I--140">
          <mxGeometry relative="1" as="geometry">
            <mxPoint x="510" y="800" as="targetPoint" />
          </mxGeometry>
        </mxCell>
        <mxCell id="YvzoMQolWy9YzdtqB8I--141" value="Missing" style="edgeLabel;html=1;align=center;verticalAlign=middle;resizable=0;points=[];fontSize=8;fontFamily=Verdana;fontColor=default;" vertex="1" connectable="0" parent="YvzoMQolWy9YzdtqB8I--137">
          <mxGeometry x="-0.5369" y="1" relative="1" as="geometry">
            <mxPoint as="offset" />
          </mxGeometry>
        </mxCell>
        <mxCell id="YvzoMQolWy9YzdtqB8I--139" value="" style="edgeStyle=orthogonalEdgeStyle;rounded=0;orthogonalLoop=1;jettySize=auto;html=1;fontFamily=Verdana;fontSize=8;fontColor=default;startSize=20;entryX=0;entryY=0.5;entryDx=0;entryDy=0;" edge="1" parent="77e6c97f196da883-1" source="YvzoMQolWy9YzdtqB8I--85" target="YvzoMQolWy9YzdtqB8I--142">
          <mxGeometry relative="1" as="geometry">
            <mxPoint x="-40" y="800" as="targetPoint" />
            <Array as="points">
              <mxPoint x="10" y="800" />
              <mxPoint x="10" y="960" />
              <mxPoint x="1000" y="960" />
              <mxPoint x="1000" y="890" />
            </Array>
          </mxGeometry>
        </mxCell>
        <mxCell id="YvzoMQolWy9YzdtqB8I--143" value="Broken" style="edgeLabel;html=1;align=center;verticalAlign=middle;resizable=0;points=[];fontSize=8;fontFamily=Verdana;fontColor=default;" vertex="1" connectable="0" parent="YvzoMQolWy9YzdtqB8I--139">
          <mxGeometry x="-0.3417" y="-1" relative="1" as="geometry">
            <mxPoint as="offset" />
          </mxGeometry>
        </mxCell>
        <mxCell id="YvzoMQolWy9YzdtqB8I--5" value="&lt;font style=&quot;font-size: 11px;&quot;&gt;1. Sales and Pre-sales should always be first responsibility of sample application owner.&lt;br&gt;2. It is suggested to consider normal production date 30 days + 15 days shipment as best situation of sample available&amp;nbsp;timeliness if sample is not available in Brazil&lt;br&gt;3. It is important to inform colleagues at the beginning of the PoC, to not waste one day from sample application, considering far distances from China to Brazil&lt;br&gt;4. After PoC is finished, Sales and Pre-sales should take care of the samples with 3 options to balance off the invoice in system:&lt;br&gt;&lt;span style=&quot;white-space: pre;&quot;&gt;&#x9;&lt;/span&gt;a. Sell samples to SI or end-customer with discounted price&lt;br&gt;&lt;span style=&quot;white-space: pre;&quot;&gt;&#x9;&lt;/span&gt;b. If broken, return to warehouse and take a picture, announce to HQ to write off this sample record.&lt;br&gt;&lt;span style=&quot;white-space: pre;&quot;&gt;&#x9;&lt;/span&gt;c. If missing, report to direct reporter to inform, and using pictures already taken with product and label to explain to HQ&lt;br&gt;&lt;span style=&quot;white-space: pre;&quot;&gt;&#x9;&lt;/span&gt;d. Return to stock with permission and notification from direct director and product&amp;amp;solution director&lt;br&gt;5. Samples in PoC, only after record in system been written off, then counted as finished, before that, sales and pre-sales should always be taking care of the samples&lt;br&gt;6. Bringing samples by colleagues from China to Brazil, only with approval of direct reporter can be evaluated, not recommended to any cases&lt;br&gt;&lt;/font&gt;" style="text;strokeColor=none;align=left;fillColor=none;html=1;verticalAlign=top;whiteSpace=wrap;rounded=0;fontSize=8;fontFamily=Verdana;fontColor=default;" vertex="1" parent="1">
          <mxGeometry x="80" width="970" height="150" as="geometry" />
        </mxCell>
      </root>
    </mxGraphModel>
  </diagram>
</mxfile>
